<svg width="22" height="22" viewBox="0 0 22 22" fill="none" xmlns="http://www.w3.org/2000/svg">
<path d="M14.9933 13.0476L16.8075 13.1616V22L11.7964 18.7973V13.7021L13.2518 14.1275L14.9933 13.0476ZM7.00668 13.0476L5.19152 13.1616V22L10.2025 18.7973V13.7021L8.7472 14.1275L7.00668 13.0476ZM20.749 7.51032L21.3361 8.73343L19.5737 9.4446L19.4261 10.7154L17.3638 11.0227L16.5005 12.1855L14.3862 12.0518L12.9099 12.9647L11 12.4062L9.09008 12.9647L7.6138 12.0488L5.49948 12.1825L4.63625 11.0197L2.57387 10.7154L2.42628 9.44637L0.658909 8.7328L1.24606 7.50975L0 6.47938L1.25006 5.45016L0.658909 4.2295L2.42228 3.51833L2.56987 2.24926L4.63625 1.94499L5.49948 0.782196L7.6138 0.915822L9.09008 0L11 0.558465L12.9099 0L14.3862 0.915822L16.5005 0.782196L17.3638 1.94499L19.4261 2.25227L19.5737 3.52129L21.3361 4.23247L20.749 5.45557L22 6.47938L20.749 7.51032ZM16.8165 6.47938C16.8165 5.79604 16.4779 5.12804 15.8436 4.55986C15.2093 3.99168 14.3078 3.54884 13.2529 3.28733C12.1981 3.02583 11.0375 2.9574 9.91769 3.09072C8.79792 3.22403 7.76934 3.55309 6.96202 4.03629C6.15471 4.51949 5.60492 5.13512 5.38219 5.80533C5.15945 6.47555 5.27377 7.17025 5.71068 7.80157C6.14759 8.4329 6.88748 8.97251 7.83678 9.35215C8.78608 9.7318 9.90216 9.93443 11.0439 9.93443C12.5741 9.93301 14.041 9.56853 15.1231 8.92089C16.2051 8.27326 16.8141 7.39528 16.8165 6.47938ZM11.0439 3.97889C10.2176 3.97889 9.4099 4.12554 8.72289 4.40029C8.03588 4.67504 7.50041 5.06555 7.18421 5.52245C6.86801 5.97934 6.78528 6.48209 6.94647 6.96713C7.10766 7.45217 7.50553 7.8977 8.08978 8.2474C8.67403 8.59709 9.41841 8.83524 10.2288 8.93173C11.0392 9.02821 11.8792 8.9787 12.6425 8.78946C13.4059 8.60021 14.0584 8.27973 14.5174 7.86854C14.9765 7.45735 15.2215 6.97392 15.2215 6.47938C15.2184 5.81697 14.7771 5.18225 13.9943 4.71402C13.2114 4.24579 12.1506 3.98213 11.0439 3.98071V3.97889Z" fill="#191919"/>
</svg>
