<svg width="21" height="16" viewBox="0 0 21 16" fill="none" xmlns="http://www.w3.org/2000/svg">
<path d="M3.582 8.99997L7.97176 13.3898C8.17005 13.5881 8.26792 13.8201 8.26536 14.0859C8.26279 14.3517 8.16492 14.588 7.97176 14.7949C7.76494 15.0017 7.52734 15.1085 7.25896 15.1154C6.99061 15.1222 6.75301 15.0222 6.54616 14.8154L0.574363 8.84357C0.333341 8.60255 0.21283 8.32136 0.21283 8.00001C0.21283 7.67865 0.333341 7.39746 0.574363 7.15644L6.54616 1.18464C6.74445 0.986351 6.97992 0.888484 7.25256 0.89104C7.52521 0.893618 7.76494 0.998317 7.97176 1.20514C8.16492 1.41198 8.26492 1.64617 8.27176 1.90771C8.27861 2.16924 8.17861 2.40342 7.97176 2.61024L3.582 7.00004H19.2692C19.553 7.00004 19.7906 7.09576 19.982 7.28721C20.1735 7.47865 20.2692 7.71625 20.2692 8.00001C20.2692 8.28376 20.1735 8.52136 19.982 8.71281C19.7906 8.90425 19.553 8.99997 19.2692 8.99997H3.582Z" fill="#DDDDE1"/>
</svg>
