<svg width="22" height="22" viewBox="0 0 22 22" fill="none" xmlns="http://www.w3.org/2000/svg">
<path d="M4.58333 5.92308C4.58333 7.49397 5.25937 9.00053 6.46273 10.1113C7.66609 11.2221 9.29819 11.8462 11 11.8462C12.7018 11.8462 14.3339 11.2221 15.5373 10.1113C16.7406 9.00053 17.4167 7.49397 17.4167 5.92308C17.4167 4.35218 16.7406 2.84562 15.5373 1.73483C14.3339 0.624037 12.7018 0 11 0C9.29819 0 7.66609 0.624037 6.46273 1.73483C5.25937 2.84562 4.58333 4.35218 4.58333 5.92308ZM20.1667 22H0.916667C0.673552 22 0.440394 21.9109 0.268486 21.7522C0.0965773 21.5935 0 21.3783 0 21.1538V18.6154C0 17.4933 0.482886 16.4172 1.34243 15.6238C2.20197 14.8304 3.36776 14.3846 4.58333 14.3846H17.4167C18.6322 14.3846 19.798 14.8304 20.6576 15.6238C21.5171 16.4172 22 17.4933 22 18.6154V21.1538C22 21.3783 21.9034 21.5935 21.7315 21.7522C21.5596 21.9109 21.3264 22 21.0833 22H20.1667Z" fill="#191919"/>
</svg>
