<svg width="22" height="22" viewBox="0 0 22 22" fill="none" xmlns="http://www.w3.org/2000/svg">
<path fill-rule="evenodd" clip-rule="evenodd" d="M11.3616 15.8125H12.3338L13.0054 12.4279L14.5908 12.4348C15.6977 12.4348 16.6079 12.1516 17.3223 11.5851C18.0372 11.0186 18.4449 10.2644 18.5453 9.32113C18.6058 8.67419 18.5068 8.11112 18.2469 7.63331L16.3701 8.61438C16.3838 8.69 16.3914 8.76769 16.3941 8.84469C16.4093 9.44419 16.2683 9.92131 15.9713 10.2767C15.6743 10.6315 15.2563 10.813 14.7187 10.8219L13.3224 10.8082L13.4558 10.1379L11.0392 11.4008L10.5992 13.6317L10.0066 11.9405L8.18812 12.8913L8.932 15.8125H11.3616ZM10.4576 8.25688H11.6607L11.2949 10.1083L13.7122 8.84469L13.9184 7.80656L15.4963 7.82031C15.5444 7.82306 15.5925 7.82925 15.6392 7.83819L17.5643 6.83169C17.0514 6.42881 16.3948 6.21638 15.5939 6.19438L12.0697 6.1875H10.5469L9.25444 8.25688L8.53187 9.47994L7.68625 6.1875H5.29375L6.9245 10.8811L5.22844 13.2804L9.8065 10.8866L11.6607 8.25619L10.4576 8.25688ZM11 22C4.92456 22 0 17.0754 0 11C0 4.92456 4.92456 0 11 0C17.0754 0 22 4.92456 22 11C22 17.0754 17.0754 22 11 22ZM3.97787 15.092L3.96412 15.0666L3.4375 15.8125H6.02594L7.64019 13.1773L3.97787 15.092Z" fill="#191919"/>
</svg>
